<?xml version="1.0" encoding="utf-8"?>
<!-- Generator: Adobe Illustrator 26.0.1, SVG Export Plug-In . SVG Version: 6.00 Build 0)  -->
<svg version="1.1" id="Layer_1" xmlns="http://www.w3.org/2000/svg" xmlns:xlink="http://www.w3.org/1999/xlink" x="0px" y="0px"
	 viewBox="0 0 600 600" style="enable-background:new 0 0 600 600;" xml:space="preserve">
<style type="text/css">
	.st0{fill:#FDFAE2;}
	.st1{fill:none;stroke:#8AC640;stroke-miterlimit:10;}
	.st2{fill:#FDFAE2;stroke:#FDFAE2;stroke-miterlimit:10;}
</style>
<path class="st0" d="M177.97,154.08"/>
<path class="st1" d="M479.37,326.42"/>
<path class="st2" d="M226.91,536.69c0.18-3.02,0.09-6.05,0.17-9.08c0.19-6.93,0.4-8.7-0.87-9.89c-1.71-1.6-4.42-0.64-10.58,0.39
	c0,0-4.67,0.78-13.88,1.49c-8.14,0.62-14.43-0.16-20.48-0.91c-5.8-0.72-9.93-1.22-15.4-2.87c-9.39-2.84-15.98-6.93-18.99-8.96
	c-3.26-2.2-10.76-7.35-15.4-14.82c-2-3.22-3.36-6.66-3.36-6.67c-1.46-3.7-1.97-6.58-2.2-7.7c-1.09-5.26-4.28-9.83-10.65-18.96
	c-5.82-8.34-8.74-12.51-12.97-15.4c-0.95-0.65-4.12-2.73-8.28-5.89c-0.83-0.63,0.13,0.08-5.52-4.56c-1.68-1.38-3.18-2.6-4.59-4.69
	c-1.03-1.52-1.62-2.42-1.4-3.46c0.43-2.06,3.71-2.96,5.52-3.45c2.11-0.58,3.85-0.58,5.65-0.56c1.11,0.01,2.79,0.08,5.98,0.61
	c0.42,0.07,4.92,0.82,8.2,1.81c10.47,3.15,19.22,11.95,22.01,14.81c2.2,2.25,3.66,4.07,6.59,7.71
	c9.24,11.51,10.31,15.24,14.47,20.22c13.2,15.79,35.18,17.38,36.09,17.43c5.77,0.34,11.14-0.47,20.4-1.86c0,0,4.65-0.46,12.33-3
	c4.38-1.45,6.56-2.17,7.52-3.41c1.91-2.49,0.72-4.69,2.39-11.31c0.59-2.34,1.23-4.01,1.75-5.37c0.75-1.96,2.61-6.47,6.35-11.96
	c4.58-6.71,7.91-8.94,7.05-10.5c-0.48-0.87-1.78-0.66-6.56-1.19c-2.42-0.26-4.8-0.74-7.21-1.05c-3.97-0.51-16.53-2.56-29.06-6.32
	c-3.42-1.02-14.11-4.36-24.75-9.74c-5.91-2.99-26.37-13.44-42.09-34.77c-17.85-24.22-20.47-48.78-22.48-67.57
	c-0.18-1.7-3.67-37.39,6.39-64.73c0.61-1.65,9.03-24.22,16.9-29.82c0.49-0.35,2.42-1.66,3.71-4.11c2.25-4.27,0.96-8.99,0.49-10.79
	c-2.35-9.03-5.26-25.35-4.74-37.16c0.34-7.58,1.84-13,3.75-19.87c2.41-8.65,3.67-13.02,6.88-14.99c4.22-2.6,10.41-0.67,22.79,3.19
	c2.47,0.77,8.47,2.71,16.27,6.12c3.78,1.65,2.16,1.11,18.59,9.31c9.4,4.7,11.14,5.48,14.3,7.81c3.18,2.34,3.94,3.4,6.26,4.26
	c4.84,1.8,8.89-0.07,15.29-2.01c10.25-3.1,18.83-4.09,30.21-5.28c14.12-1.49,24.63-1.24,34.17-1.02c0,0,25.69,0.35,47.06,4.54
	c3.82,0.75,7.65,1.42,11.46,2.23c7.48,1.61,8.35,2.09,10.64,2.03c5.34-0.14,8.27-2.97,15.27-7.7c0,0,6.27-4.24,18.02-10.51
	c11.51-6.14,20.58-8.97,22.73-9.63c11.72-3.56,19.23-5.84,24.78-2.19c1.55,1.02,3.82,3.08,6.74,15.21
	c4.11,17.09,7.86,33.37,1.06,51.44c-1.18,3.13-2.39,5.57-3.16,7.02c-0.19,0.45-0.87,2.2-0.16,4.25c0.55,1.58,1.62,2.48,2.07,2.81
	c8.72,10.6,20.06,27.72,25.39,51.02c5.38,23.52,2.08,42.17-1.07,59.91c-2.89,16.31-6.1,33.42-18.09,52.08
	c-10.74,16.71-22.98,26.02-25.8,28.12c-11.15,8.28-20.98,12.53-32.45,16.33c0,0-9.9,3.79-37.99,10.54
	c-3.27,0.79-4.76,1.03-6.13,1.19c-4.43,0.51-6.65,0.76-7.74,0.66c-0.83-0.08-1.74-0.23-2.01,0.21c-0.4,0.64,0.88,2.14,2.01,3.3
	c3.27,3.12,8.22,8.6,11.9,16.73c4.04,8.93,4.71,16.96,4.75,21.61l0,96.58c-0.03,1.09,0.05,4.19,2.18,7.2
	c2.69,3.8,6.71,4.7,7.62,4.88c2.09,0.27,5.27,0.5,9.07,0c3.62-0.48,6.4-1.43,14.7-4.82c5.48-2.24,8.22-3.35,10.71-4.47
	c10.78-4.83,16.88-7.57,24.26-11.53c13.01-6.97,22.23-13.59,29.12-18.56c10.01-7.23,17.15-13.32,22.73-18.09
	c0,0,11.16-9.55,20.55-18.82c8.42-8.31,86.39-90.96,81.28-214.75c-0.5-12.07-2.37-38.55-12-70.8
	c-23.51-78.71-73.42-125.3-84.64-135.41C417.32,15.42,319.97,13.65,299.95,13.7c-22.25,0.05-117.93,2.77-199.63,77.08
	C88.8,101.25,8.27,176.92,4.5,299.63c-2.53,82.25,30.8,140.95,42.2,160.43c0,0,61.04,104.26,160.26,125.51c4.66,1,9.24,0,9.24,0
	c1.66-0.36,4.22-0.95,6.38-2.84c2.92-2.55,3.61-6.17,3.96-8.29C228.75,560.77,226.13,549.51,226.91,536.69z"/>
<path class="st1" d="M248.4,492.94"/>
<path class="st1" d="M414.98,474.61"/>
<path class="st1" d="M483.41,231.8"/>
<path class="st1" d="M194.3,236.55"/>
</svg>
