<?xml version="1.0" encoding="utf-8"?>
<!-- Generator: Adobe Illustrator 26.0.1, SVG Export Plug-In . SVG Version: 6.00 Build 0)  -->
<svg version="1.1" id="Layer_1" xmlns="http://www.w3.org/2000/svg" xmlns:xlink="http://www.w3.org/1999/xlink" x="0px" y="0px"
	 viewBox="0 0 600 600" style="enable-background:new 0 0 600 600;" xml:space="preserve">
<style type="text/css">
	.st0{fill:#FCF9E4;}
	.st1{fill:none;stroke:#FDFAE2;stroke-miterlimit:10;}
	.st2{fill:#FFFFFF;}
</style>
<g>
	<g>
		<g>
			<g>
				<path class="st0" d="M562.19,39.17c-9.96-9.18-22.04-8.64-24.11-8.52L61.74,30.59c-2.13-0.12-13.97-0.48-23.8,8.52
					c-9.84,9-10.38,20.59-10.45,22.69v472.17c0.61,3.54,2.92,14.77,13,24.13c9.72,9.12,20.77,10.92,24.41,11.41h474.46
					c2.13,0,14.51-0.12,24.11-10.08c8.87-9.18,9.05-20.35,9.05-22.69V61.81C572.45,59.7,571.9,48.18,562.19,39.17z M196.19,480.49
					h-78.64V239.97h78.76L196.19,480.49z M160.42,204.25c-23.26,0.42-42.99-18.55-42.87-41.6c0.12-22.21,18.76-40.58,41.11-41.06
					c23.02-0.54,42.93,18.01,43.06,41.06C201.84,185.22,183.01,203.83,160.42,204.25z M480.21,480.49h-77.67V334.87
					c0-2.76-0.3-16.27-11.3-27.25c-1.46-1.5-11.48-11.23-26.72-11.59c-21.38-0.48-38.99,17.77-42.02,34.7
					c-0.55,3.06-0.55,5.64-0.49,7.32l-0.73,142.44h-78.64V239.97h78.82v32.23c4.19-6.42,12.75-17.65,27.57-26.41
					c3.64-2.16,20.4-11.71,44.21-11.83c7.47,0,33.89,0.24,57.02,19.57c29.27,24.49,29.94,60.09,29.94,65.55V480.49z"/>
			</g>
		</g>
	</g>
</g>
<path class="st1" d="M241.3,194.14"/>
<path class="st2" d="M197.49,201.1L197.49,201.1z"/>
<path class="st2" d="M174.86,172.08"/>
</svg>
