<?xml version="1.0" encoding="utf-8"?>
<!-- Generator: Adobe Illustrator 26.0.1, SVG Export Plug-In . SVG Version: 6.00 Build 0)  -->
<svg version="1.1" id="Layer_1" xmlns="http://www.w3.org/2000/svg" xmlns:xlink="http://www.w3.org/1999/xlink" x="0px" y="0px"
	 viewBox="0 0 600 600" style="enable-background:new 0 0 600 600;" xml:space="preserve">
<style type="text/css">
	.st0{fill:none;stroke:#FDFAE2;stroke-miterlimit:10;}
	.st1{fill:none;}
	.st2{fill:#FDFAE2;stroke:#FDFAE2;stroke-miterlimit:10;}
</style>
<path class="st0" d="M80.17,214.97"/>
<path class="st1" d="M180.45,286.52"/>
<path class="st0" d="M219.07,303.46"/>
<path class="st2" d="M593.08,136.27c-0.28,13.52-0.04,330.19-0.01,336.4c0.01,1.76,0.15,8.61-2.89,9.83
	c-3.09,1.25-7.86-3.97-9.16-5.34c-12.54-13.25-163.19-155.79-172.14-163.81c-1.11-0.99-4.86-4.24-4.92-8.67
	c-0.07-5.42,5.43-9.52,6.94-10.7c16.51-12.9,154.53-144.92,169.44-161.35c1.48-1.63,6.77-7.66,10.01-6.32
	C593.38,127.54,593.12,134.52,593.08,136.27z"/>
<path class="st2" d="M4.79,472.53c0.28-13.52,0.04-330.19,0.01-336.4c-0.01-1.76-0.15-8.61,2.89-9.83c3.09-1.25,7.86,3.97,9.16,5.34
	c12.54,13.25,163.19,155.79,172.14,163.81c1.11,0.99,4.86,4.24,4.92,8.67c0.07,5.42-5.43,9.52-6.94,10.7
	c-16.51,12.9-154.53,144.92-169.44,161.35c-1.48,1.63-6.77,7.66-10.01,6.32C4.5,481.26,4.75,474.28,4.79,472.53z"/>
<path class="st2" d="M50.69,514.83c77.27-0.88,154.56,0.26,231.84-0.08c32.07-0.14,254.51,0.78,270.11-1.75
	c5.08-0.83,10.69-2.77,10.69-2.77c4.4-1.52,6.59-2.79,10.61-5.1c4.8-2.77,5.6-3.89,5.8-5.02c0.46-2.67-2.53-5.22-3.31-5.92
	c-6.49-5.8-175.43-165.24-181.94-172.35c-0.5-0.55-2.49-2.87-5.26-2.94c-3.21-0.09-5.68,2.89-6.42,3.75
	c-6.53,7.58-41.23,39.46-64.92,47.69c-20.25,7.03-39.92-0.62-41.9-1.42c-21.09-8.54-53.48-37.32-61.55-47.21
	c-0.82-1.01-3.3-4.16-6.49-4.05c-3.61,0.13-6.13,4.37-6.68,5.23c-9.98,15.6-158.84,156.2-175.85,167.47
	c-0.97,0.65-4.83,3.06-5.24,6.83c-0.46,4.26,3.74,8.05,5.66,9.79c1.43,1.29,4.5,3.74,10.92,5.71
	C44.01,514.91,50,514.84,50.69,514.83z"/>
<path class="st0" d="M-11.41,566.66"/>
<path class="st2" d="M45.04,96.72c40.68-3.61,480.07,0.16,498.16-0.92c0.14-0.01,5.27-0.32,12,0.71c4.75,0.72,12.06,2.38,18.51,7.44
	c3.37,2.64,4.34,4.51,4.47,6.23c0.21,2.81-1.84,5.07-2.48,5.8c-75.49,84.94-132.52,133.65-246.59,231.06
	c-3.97,3.39-14.63,12.68-29.21,13.02c-17.36,0.4-30.58-12.14-35.24-16.44C105.25,196.42,25.55,122.82,20.13,117.15
	c-0.67-0.7-2.71-2.79-2.58-5.45c0.22-4.66,6.95-7.98,10.97-9.9C37.77,97.37,45.04,96.72,45.04,96.72z"/>
<path class="st2" d="M142.73,355.24"/>
</svg>
